# xmcd CD database file
#
# Track frame offsets:
#	182
#	16950
#	34462
#	51027
#	67235
#	84750
#	108632
#	130977
#	149680
#	166022
#	187295
#	204132
#	221732
#
# Disc length: 3227 seconds
#
# Revision: 0
# Processed by: cddbd v1.5.1PL0 Copyright (c) Steve Scherf et al.
# Submitted via: CDex 1.51
#
DISCID=c30c990d
DTITLE=Various Artist - Hit Singles 1980
DYEAR=1980
DGENRE=Pop
TTITLE0=Michael Jackson/Rock With You
TTITLE1=Air Supply/Lost In Love
TTITLE2=Leo Sayer/More Than I Can Say
TTITLE3=Blondie/Call Me
TTITLE4=Barbra Strisand/Woman In Love
TTITLE5=Irene Cara/Fame
TTITLE6=Eagles/I Can't Tell You Why
TTITLE7=Diana Ross/Upside Down
TTITLE8=Queen/Another One Bites The Dust
TTITLE9=ABBA/I Have A Dream
TTITLE10=Bette Midler/The Rose
TTITLE11=Kenny Rogers/Lady
TTITLE12=Olivia Newton-John/Magic
EXTD=YEAR: 1980
EXTT0=
EXTT1=
EXTT2=
EXTT3=
EXTT4=
EXTT5=
EXTT6=
EXTT7=
EXTT8=
EXTT9=
EXTT10=
EXTT11=
EXTT12=
PLAYORDER=
